#!OML:ASF E:/inclinewalkrobotboard/Project1/Captureday1/Session1/subject1.ASF
:FULLY-SPECIFIED
:DEGREES
326
root 0 0 0 -1.4595544658658886 0.40860347238668826 3.0695334095192846
lowerback 10.192561254067769 -1.491321445761003 -4.724502984367739
upperback 0.4587109297261769 -2.4394861741009315 1.3781648512375004
thorax -5.064054881912826 -1.0827620622495462 4.438773211678679
lowerneck -17.34782799876182 -2.470420734274288 -2.068995255605571
upperneck 20.08307274895555 -2.81342454669923 -0.2582383390323644
head 9.25268001009749 -1.479039041836824 -0.10967905568927133
rclavicle 3.865782121210918E-15 -1.0232673538860202E-15
rhumerus -32.27506853978603 -24.214686297682867 -75.87336925952256
rradius 25.460652863516763
rwrist 3.27591319745384
rhand -18.844025911942936 22.623835341081577
rfingers 7.125020000000021
rthumb 7.458713498521339 -7.305810331740027
lclavicle 3.068555940591741E-15 -6.277468789357392E-16
lhumerus -24.137818107733253 -5.524029158411741 81.81628522641037
lradius 31.98636315474697
lwrist 7.453302487419606
lhand -28.122944782612237 25.21168157818403
lfingers 7.125020000000002
lthumb -1.4996851689599584 55.20432378092478
rfemur -32.24793085152607 7.511958272344767 19.51862030852574
rtibia 17.60766488340089
rfoot -8.55111522132173 -15.012617722021231
rtoes -4.588581434718374
lfemur 11.572407701081953 -3.284672885584772 -29.697795684038113
ltibia 19.74345236487097
lfoot -17.260946999184817 -1.1092684068485599
ltoes 1.667917697859341
327
root 0 0 0 -1.4386283184525717 0.463088982377017 2.7177945925875835
lowerback 10.201502405634718 -1.520512327013829 -4.469126341987067
upperback 0.4174724464062993 -2.4429773926991727 1.484661319362369
thorax -5.11062847825278 -1.0888893430560065 4.406954558137448
lowerneck -17.351564189705275 -2.449735669192232 -1.9820353381782518
upperneck 20.24796588592138 -2.775622706382245 -0.41913180233563585
head 9.309643994373026 -1.4733847283896242 -0.17504468679382001
rclavicle 2.8384680978341813E-15 -1.018768070939234E-15
rhumerus -32.62512799408141 -24.813984741955284 -75.65361111672158
rradius 25.090128552252914
rwrist 3.554704135787788
rhand -18.85518109070891 22.405743210100574
rfingers 7.125020000000019
rthumb 7.447520511419088 -7.532181639805383
lclavicle 1.9609344214435094E-15 -5.8293870730399E-16
lhumerus -24.42259774000693 -5.082748653284128 81.64590388399719
lradius 31.671115063421063
lwrist 7.335995479089636
lhand -28.057801566652977 25.61380210729107
lfingers 7.125020000000004
lthumb -1.4359675184095888 55.603199267263854
rfemur -28.67275893711884 7.90451641988415 19.348538472023133
rtibia 14.45154435102158
rfoot -7.378478362399383 -13.113151756132163
rtoes -4.592506174849014
lfemur 14.256567481854507 -3.4719581659546876 -29.421902405599916
ltibia 20.61962871308638
lfoot -14.489146159716364 -3.7576974786301256
ltoes -0.9123217466097842
328
root 0 0 0 -1.4597045867955485 0.5150046284680507 1.7687670085479454
lowerback 10.315784015680746 -1.5903701789831701 -3.7742307508590605
upperback 0.3974061744795082 -2.4362807748706805 1.7609873421011037
thorax -5.192425342084637 -1.099582259584941 4.305481578442015
lowerneck -17.40995543675337 -2.4036738450846866 -1.8706039301678192
upperneck 19.97455365760639 -2.71199844118245 -0.5360185398195896
head 9.23131879412286 -1.4486107730804796 -0.22377416410943224
rclavicle 2.2855580051027814E-15 -1.4896905768374523E-15
rhumerus -32.892892845113465 -25.35567536148664 -75.47019180120098
rradius 24.618944574545452
rwrist 3.9741384944193436
rhand -18.813903412376494 22.29075069270166
rfingers 7.125020000000017
rthumb 7.487378228595503 -7.6517482287473015
lclavicle 1.3038661468140262E-15 -9.507321669549456E-16
lhumerus -25.097227582370294 -4.529228629639711 81.62296290401223
lradius 31.279951428790596
lwrist 7.1825771676001295
lhand -27.959177553363894 25.871617110322155
lfingers 7.1250200000000055
lthumb -1.339686111739491 55.85781786088155
rfemur -25.897489079829413 6.408807454455101 19.782364408984808
rtibia 21.683807048872367
rfoot -6.003109794080123 -9.891320463494054
rtoes -1.314416636495557
lfemur 16.567019175152844 -3.6336137639866477 -28.4180363133449
ltibia 23.667303427047305
lfoot -8.969440696293946 -7.532262823687454
ltoes -5.618317630320185
329
root 0 0 0 -1.5528978813334162 0.6617210678365457 -0.863151827089442
lowerback 10.641287921695811 -1.804287396296873 -1.8097471608021019
upperback 0.40588590486170706 -2.437312593923049 2.5307306074517033
thorax -5.361016951902402 -1.1408330934589699 4.00837245810284
lowerneck -17.49896135268343 -2.329914009098388 -1.6327072389999788
upperneck 19.238785780120807 -2.6161371667238287 -0.7273737074366331
head 9.001651181445084 -1.4082012055177984 -0.3118184851277935
rclavicle 2.123880303010319E-15 -2.0030715217529816E-15
rhumerus -33.0147532907038 -25.679822941489057 -75.35699220559242
rradius 24.223251446674766
rwrist 4.342443882129426
rhand -18.741163386203965 22.26532948852028
rfingers 7.125020000000017
rthumb 7.557888973413811 -7.6737871096052
lclavicle 1.0281932732351884E-15 -1.3688040131979823E-15
lhumerus -26.591516847086822 -3.7928118531489035 81.94494341355039
lradius 30.759661822896817
lwrist 7.039425533088853
lhand -27.8139224701751 25.637764049622525
lfingers 7.12502000000001
lthumb -1.1996368128587394 55.619098735969025
rfemur -21.684748643806447 4.662712430133849 21.9701877299613
rtibia 31.94429378184846
rfoot -5.843977062516189 -5.814564432177781
rtoes 5.218930753889553
lfemur 15.109569751363736 -3.5560482255315677 -24.326363043064667
ltibia 37.68626499643785
lfoot 2.788556071175634 -13.599033749023416
ltoes -13.757569997504781
330
root 0 0 0 -2.216362866160353 0.5227995985802414 -2.720552194494965
lowerback 10.580630390771807 -1.761934675130823 -0.2639585284078163
upperback 0.7158163249252152 -2.1674984727792523 3.032948161599717
thorax -5.045293976487757 -1.0357412406862105 3.637744399073395
lowerneck -16.810064500767137 -2.3549249283284284 -1.5478807904918082
upperneck 20.79351522289691 -2.6854213556086077 -0.6888751413584762
head 9.37984253433512 -1.427391665774387 -0.3314694540021957
rclavicle 2.5716393183050237E-15 -3.3557554309104287E-15
rhumerus -32.8992628077374 -25.619452570924835 -75.44071871177307
rradius 23.98274071782759
rwrist 4.6082686832174575
rhand -18.620516367421118 22.331433970504495
rfingers 7.125020000000017
rthumb 7.674900912498163 -7.59335416245721
lclavicle 1.1556348548320236E-15 -2.967647040959187E-15
lhumerus -29.535415532111383 -2.7534692556238034 82.88419143241268
lradius 29.99345376920369
lwrist 6.894406030048234
lhand -27.529231762644258 24.781882611793257
lfingers 7.125020000000019
lthumb -0.9269560414033773 54.75198704651716
rfemur -19.815020420219607 5.230705044465234 24.175081268453397
rtibia 32.56556536891347
rfoot -7.297117882871248 -5.2371184482843685
rtoes 9.219632141301433
lfemur 3.490320243168532 -1.9617336075319174 -18.113002967221497
ltibia 54.155693057363194
lfoot 18.504016662884567 -20.71478114072678
ltoes -6.789974857144781
331
root 0 0 0 -3.3177397789695773 -0.09309329387962961 -3.6038306434437697
lowerback 11.685105539646305 -1.3696567455463198 0.6340044617330018
upperback 1.1230915153546044 -1.5171690613780224 3.107922521606821
thorax -5.33511797182245 -0.7294107233662308 3.1273399007175806
lowerneck -16.16291048220659 -2.6169331378427625 -1.470294220614297
upperneck 22.290978343206643 -3.0947467533709423 -0.564784319973991
head 9.830518300483094 -1.6028565041618283 -0.35700858050958345
rclavicle 3.480021375004424E-15 -4.928128303498647E-15
rhumerus -32.727886124914576 -25.192731860015726 -75.88886540563608
rradius 23.661965235533543
rwrist 4.86102417320394
rhand -18.438645909880876 22.445196055299963
rfingers 7.125020000000018
rthumb 7.852505714495407 -7.453249476754177
lclavicle 1.4663240469437018E-15 -4.781502971646137E-15
lhumerus -31.713009373128706 -2.2524961581303296 83.81309657671068
lradius 29.463889348099947
lwrist 6.711529396147153
lhand -27.36956619917914 24.14125082660198
lfingers 7.125020000000024
lthumb -0.7714849849829788 54.11156625956713
rfemur -18.099497373486166 6.207568648269255 26.200123668159783
rtibia 30.467008566720416
rfoot -9.204401995074965 -5.856588184675537
rtoes 11.256045989649383
lfemur -4.102497545582494 0.6829057482988588 -15.989595668805105
ltibia 65.31728578549792
lfoot 17.65365138802133 -20.937973929189084
ltoes -4.542805383859118
